<mxfile host="65bd71144e">
    <diagram id="UPZS3zDE_AUAHSqFzqAw" name="Page-2">
        <mxGraphModel dx="1703" dy="627" grid="1" gridSize="10" guides="1" tooltips="1" connect="1" arrows="1" fold="1" page="1" pageScale="1" pageWidth="827" pageHeight="1169" math="0" shadow="0">
            <root>
                <mxCell id="yJhG_duTSs4Emjzdc6Ai-0"/>
                <mxCell id="yJhG_duTSs4Emjzdc6Ai-1" parent="yJhG_duTSs4Emjzdc6Ai-0"/>
                <mxCell id="w0gTdPzoTVrr4VO6SVXy-94" value="" style="endArrow=none;html=1;strokeWidth=5;fillColor=#f8cecc;strokeColor=#b85450;" parent="yJhG_duTSs4Emjzdc6Ai-1" target="w0gTdPzoTVrr4VO6SVXy-82" edge="1">
                    <mxGeometry width="50" height="50" relative="1" as="geometry">
                        <mxPoint x="50" y="190" as="sourcePoint"/>
                        <mxPoint x="790" y="190" as="targetPoint"/>
                    </mxGeometry>
                </mxCell>
                <mxCell id="w0gTdPzoTVrr4VO6SVXy-92" value="" style="endArrow=classic;html=1;strokeWidth=5;fillColor=#fff2cc;strokeColor=#d6b656;" parent="yJhG_duTSs4Emjzdc6Ai-1" edge="1">
                    <mxGeometry width="50" height="50" relative="1" as="geometry">
                        <mxPoint x="100" y="269.5" as="sourcePoint"/>
                        <mxPoint x="840" y="269.5" as="targetPoint"/>
                    </mxGeometry>
                </mxCell>
                <mxCell id="w0gTdPzoTVrr4VO6SVXy-93" value="" style="endArrow=classic;html=1;strokeWidth=5;fillColor=#d5e8d4;strokeColor=#82b366;startArrow=none;exitX=0;exitY=1;exitDx=0;exitDy=0;" parent="yJhG_duTSs4Emjzdc6Ai-1" source="w0gTdPzoTVrr4VO6SVXy-100" edge="1">
                    <mxGeometry width="50" height="50" relative="1" as="geometry">
                        <mxPoint x="180" y="349.5" as="sourcePoint"/>
                        <mxPoint x="920" y="349.5" as="targetPoint"/>
                    </mxGeometry>
                </mxCell>
                <mxCell id="w0gTdPzoTVrr4VO6SVXy-91" value="" style="endArrow=classic;html=1;strokeWidth=5;fillColor=#f8cecc;strokeColor=#b85450;startArrow=none;" parent="yJhG_duTSs4Emjzdc6Ai-1" source="w0gTdPzoTVrr4VO6SVXy-82" edge="1">
                    <mxGeometry width="50" height="50" relative="1" as="geometry">
                        <mxPoint x="50" y="190" as="sourcePoint"/>
                        <mxPoint x="790" y="190" as="targetPoint"/>
                    </mxGeometry>
                </mxCell>
                <mxCell id="w0gTdPzoTVrr4VO6SVXy-39" style="edgeStyle=none;html=1;exitX=1;exitY=0.5;exitDx=0;exitDy=0;entryX=0;entryY=0.5;entryDx=0;entryDy=0;" parent="yJhG_duTSs4Emjzdc6Ai-1" source="w0gTdPzoTVrr4VO6SVXy-36" target="w0gTdPzoTVrr4VO6SVXy-38" edge="1">
                    <mxGeometry relative="1" as="geometry">
                        <Array as="points">
                            <mxPoint x="300" y="190"/>
                            <mxPoint x="300" y="270"/>
                        </Array>
                    </mxGeometry>
                </mxCell>
                <mxCell id="w0gTdPzoTVrr4VO6SVXy-40" style="edgeStyle=none;html=1;exitX=1;exitY=0.5;exitDx=0;exitDy=0;entryX=0;entryY=0.5;entryDx=0;entryDy=0;" parent="yJhG_duTSs4Emjzdc6Ai-1" source="w0gTdPzoTVrr4VO6SVXy-38" target="w0gTdPzoTVrr4VO6SVXy-37" edge="1">
                    <mxGeometry relative="1" as="geometry">
                        <Array as="points">
                            <mxPoint x="500" y="270"/>
                            <mxPoint x="500" y="350"/>
                        </Array>
                    </mxGeometry>
                </mxCell>
                <mxCell id="w0gTdPzoTVrr4VO6SVXy-42" value="" style="endArrow=classic;html=1;" parent="yJhG_duTSs4Emjzdc6Ai-1" edge="1">
                    <mxGeometry width="50" height="50" relative="1" as="geometry">
                        <mxPoint x="600" y="349.5" as="sourcePoint"/>
                        <mxPoint x="640" y="350" as="targetPoint"/>
                    </mxGeometry>
                </mxCell>
                <mxCell id="w0gTdPzoTVrr4VO6SVXy-81" style="edgeStyle=none;html=1;exitX=1;exitY=0.5;exitDx=0;exitDy=0;entryX=0;entryY=0.5;entryDx=0;entryDy=0;" parent="yJhG_duTSs4Emjzdc6Ai-1" source="w0gTdPzoTVrr4VO6SVXy-82" target="w0gTdPzoTVrr4VO6SVXy-85" edge="1">
                    <mxGeometry relative="1" as="geometry">
                        <Array as="points">
                            <mxPoint x="500" y="190"/>
                            <mxPoint x="500" y="270"/>
                        </Array>
                    </mxGeometry>
                </mxCell>
                <mxCell id="w0gTdPzoTVrr4VO6SVXy-84" style="edgeStyle=none;html=1;exitX=1;exitY=0.5;exitDx=0;exitDy=0;entryX=0;entryY=0.5;entryDx=0;entryDy=0;" parent="yJhG_duTSs4Emjzdc6Ai-1" source="w0gTdPzoTVrr4VO6SVXy-85" target="w0gTdPzoTVrr4VO6SVXy-83" edge="1">
                    <mxGeometry relative="1" as="geometry">
                        <Array as="points">
                            <mxPoint x="720" y="270"/>
                            <mxPoint x="720" y="350"/>
                        </Array>
                    </mxGeometry>
                </mxCell>
                <mxCell id="w0gTdPzoTVrr4VO6SVXy-87" value="" style="endArrow=classic;html=1;entryX=0;entryY=0.5;entryDx=0;entryDy=0;startArrow=none;" parent="yJhG_duTSs4Emjzdc6Ai-1" source="w0gTdPzoTVrr4VO6SVXy-83" edge="1">
                    <mxGeometry width="50" height="50" relative="1" as="geometry">
                        <mxPoint x="810" y="349.5" as="sourcePoint"/>
                        <mxPoint x="870" y="349.5" as="targetPoint"/>
                    </mxGeometry>
                </mxCell>
                <mxCell id="w0gTdPzoTVrr4VO6SVXy-96" value="" style="endArrow=none;html=1;entryX=0;entryY=0.5;entryDx=0;entryDy=0;" parent="yJhG_duTSs4Emjzdc6Ai-1" target="w0gTdPzoTVrr4VO6SVXy-83" edge="1">
                    <mxGeometry width="50" height="50" relative="1" as="geometry">
                        <mxPoint x="810" y="349.5" as="sourcePoint"/>
                        <mxPoint x="870" y="349.5" as="targetPoint"/>
                    </mxGeometry>
                </mxCell>
                <mxCell id="w0gTdPzoTVrr4VO6SVXy-97" value="&lt;font style=&quot;font-size: 20px&quot;&gt;Линия 1&lt;/font&gt;" style="text;html=1;strokeColor=none;fillColor=none;align=center;verticalAlign=middle;whiteSpace=wrap;rounded=0;" parent="yJhG_duTSs4Emjzdc6Ai-1" vertex="1">
                    <mxGeometry x="50" y="160" width="80" height="30" as="geometry"/>
                </mxCell>
                <mxCell id="w0gTdPzoTVrr4VO6SVXy-99" value="&lt;font style=&quot;font-size: 20px&quot;&gt;Линия 2&lt;/font&gt;" style="text;html=1;strokeColor=none;fillColor=none;align=center;verticalAlign=middle;whiteSpace=wrap;rounded=0;" parent="yJhG_duTSs4Emjzdc6Ai-1" vertex="1">
                    <mxGeometry x="100" y="240" width="80" height="30" as="geometry"/>
                </mxCell>
                <mxCell id="w0gTdPzoTVrr4VO6SVXy-100" value="&lt;font style=&quot;font-size: 20px&quot;&gt;Линия 3&lt;/font&gt;" style="text;html=1;strokeColor=none;fillColor=none;align=center;verticalAlign=middle;whiteSpace=wrap;rounded=0;" parent="yJhG_duTSs4Emjzdc6Ai-1" vertex="1">
                    <mxGeometry x="180" y="320" width="80" height="30" as="geometry"/>
                </mxCell>
                <mxCell id="w0gTdPzoTVrr4VO6SVXy-36" value="Завка 1 этап1" style="rounded=0;whiteSpace=wrap;html=1;fontSize=20;" parent="yJhG_duTSs4Emjzdc6Ai-1" vertex="1">
                    <mxGeometry x="160" y="160" width="120" height="60" as="geometry"/>
                </mxCell>
                <mxCell id="w0gTdPzoTVrr4VO6SVXy-38" value="&lt;font style=&quot;font-size: 20px&quot;&gt;Завка 1 этап2&lt;/font&gt;" style="rounded=0;whiteSpace=wrap;html=1;fontSize=20;" parent="yJhG_duTSs4Emjzdc6Ai-1" vertex="1">
                    <mxGeometry x="320" y="240" width="160" height="60" as="geometry"/>
                </mxCell>
                <mxCell id="w0gTdPzoTVrr4VO6SVXy-85" value="Завка 2 этап2" style="rounded=0;whiteSpace=wrap;html=1;fontSize=20;" parent="yJhG_duTSs4Emjzdc6Ai-1" vertex="1">
                    <mxGeometry x="530" y="240" width="170" height="60" as="geometry"/>
                </mxCell>
                <mxCell id="w0gTdPzoTVrr4VO6SVXy-115" style="edgeStyle=none;html=1;exitX=1;exitY=0.5;exitDx=0;exitDy=0;fontSize=20;strokeWidth=1;" parent="yJhG_duTSs4Emjzdc6Ai-1" source="w0gTdPzoTVrr4VO6SVXy-88" edge="1">
                    <mxGeometry relative="1" as="geometry">
                        <mxPoint x="760" y="270" as="targetPoint"/>
                        <Array as="points">
                            <mxPoint x="730" y="190"/>
                            <mxPoint x="730" y="270"/>
                        </Array>
                    </mxGeometry>
                </mxCell>
                <mxCell id="w0gTdPzoTVrr4VO6SVXy-88" value="Завка 3 этап1" style="rounded=0;whiteSpace=wrap;html=1;fontSize=20;" parent="yJhG_duTSs4Emjzdc6Ai-1" vertex="1">
                    <mxGeometry x="530" y="160" width="120" height="60" as="geometry"/>
                </mxCell>
                <mxCell id="w0gTdPzoTVrr4VO6SVXy-82" value="Завка 2 этап1" style="rounded=0;whiteSpace=wrap;html=1;fontSize=20;" parent="yJhG_duTSs4Emjzdc6Ai-1" vertex="1">
                    <mxGeometry x="320" y="160" width="120" height="60" as="geometry"/>
                </mxCell>
                <mxCell id="w0gTdPzoTVrr4VO6SVXy-114" style="edgeStyle=none;html=1;exitX=1;exitY=0.5;exitDx=0;exitDy=0;fontSize=20;strokeWidth=1;" parent="yJhG_duTSs4Emjzdc6Ai-1" source="w0gTdPzoTVrr4VO6SVXy-37" edge="1">
                    <mxGeometry relative="1" as="geometry">
                        <mxPoint x="910" y="430" as="targetPoint"/>
                        <Array as="points">
                            <mxPoint x="700" y="350"/>
                            <mxPoint x="700" y="430"/>
                        </Array>
                    </mxGeometry>
                </mxCell>
                <mxCell id="w0gTdPzoTVrr4VO6SVXy-37" value="Завка 1 этап3" style="rounded=0;whiteSpace=wrap;html=1;fontSize=20;" parent="yJhG_duTSs4Emjzdc6Ai-1" vertex="1">
                    <mxGeometry x="520" y="320" width="120" height="60" as="geometry"/>
                </mxCell>
                <mxCell id="w0gTdPzoTVrr4VO6SVXy-113" style="edgeStyle=none;html=1;exitX=1;exitY=0.5;exitDx=0;exitDy=0;entryX=0;entryY=0.5;entryDx=0;entryDy=0;fontSize=20;strokeWidth=1;" parent="yJhG_duTSs4Emjzdc6Ai-1" source="w0gTdPzoTVrr4VO6SVXy-83" target="w0gTdPzoTVrr4VO6SVXy-109" edge="1">
                    <mxGeometry relative="1" as="geometry">
                        <Array as="points">
                            <mxPoint x="890" y="350"/>
                            <mxPoint x="890" y="430"/>
                        </Array>
                    </mxGeometry>
                </mxCell>
                <mxCell id="w0gTdPzoTVrr4VO6SVXy-83" value="Завка 2 этап3" style="rounded=0;whiteSpace=wrap;html=1;fontSize=20;" parent="yJhG_duTSs4Emjzdc6Ai-1" vertex="1">
                    <mxGeometry x="750" y="320" width="120" height="60" as="geometry"/>
                </mxCell>
                <mxCell id="w0gTdPzoTVrr4VO6SVXy-104" value="" style="endArrow=classic;html=1;entryX=0;entryY=0.5;entryDx=0;entryDy=0;exitX=1;exitY=0.5;exitDx=0;exitDy=0;" parent="yJhG_duTSs4Emjzdc6Ai-1" source="w0gTdPzoTVrr4VO6SVXy-106" edge="1">
                    <mxGeometry width="50" height="50" relative="1" as="geometry">
                        <mxPoint x="300" y="130" as="sourcePoint"/>
                        <mxPoint x="320" y="189" as="targetPoint"/>
                        <Array as="points">
                            <mxPoint x="300" y="100"/>
                            <mxPoint x="300" y="189"/>
                        </Array>
                    </mxGeometry>
                </mxCell>
                <mxCell id="w0gTdPzoTVrr4VO6SVXy-111" style="edgeStyle=none;html=1;fontSize=20;strokeWidth=1;" parent="yJhG_duTSs4Emjzdc6Ai-1" source="w0gTdPzoTVrr4VO6SVXy-106" edge="1">
                    <mxGeometry relative="1" as="geometry">
                        <mxPoint x="160" y="190" as="targetPoint"/>
                        <Array as="points">
                            <mxPoint x="130" y="100"/>
                            <mxPoint x="130" y="190"/>
                        </Array>
                    </mxGeometry>
                </mxCell>
                <mxCell id="w0gTdPzoTVrr4VO6SVXy-106" value="Входящие заявки" style="rounded=0;whiteSpace=wrap;html=1;fontSize=20;" parent="yJhG_duTSs4Emjzdc6Ai-1" vertex="1">
                    <mxGeometry x="-10" y="70" width="120" height="60" as="geometry"/>
                </mxCell>
                <mxCell id="w0gTdPzoTVrr4VO6SVXy-109" value="Результат заявок" style="rounded=0;whiteSpace=wrap;html=1;fontSize=20;" parent="yJhG_duTSs4Emjzdc6Ai-1" vertex="1">
                    <mxGeometry x="910" y="400" width="120" height="60" as="geometry"/>
                </mxCell>
                <mxCell id="w0gTdPzoTVrr4VO6SVXy-112" value="" style="endArrow=classic;html=1;fontSize=20;strokeWidth=1;exitX=1;exitY=0.5;exitDx=0;exitDy=0;entryX=0;entryY=0.5;entryDx=0;entryDy=0;" parent="yJhG_duTSs4Emjzdc6Ai-1" source="w0gTdPzoTVrr4VO6SVXy-106" target="w0gTdPzoTVrr4VO6SVXy-88" edge="1">
                    <mxGeometry width="50" height="50" relative="1" as="geometry">
                        <mxPoint x="500" y="180" as="sourcePoint"/>
                        <mxPoint x="550" y="130" as="targetPoint"/>
                        <Array as="points">
                            <mxPoint x="510" y="100"/>
                            <mxPoint x="510" y="190"/>
                        </Array>
                    </mxGeometry>
                </mxCell>
            </root>
        </mxGraphModel>
    </diagram>
    <diagram id="dF7w7zlhCG-0OVSPjz3C" name="Page-1">
        <mxGraphModel dx="1095" dy="784" grid="1" gridSize="10" guides="1" tooltips="1" connect="1" arrows="1" fold="1" page="1" pageScale="1" pageWidth="827" pageHeight="1169" math="0" shadow="0">
            <root>
                <mxCell id="jp1rHcbIMbG1HU9a8aKI-0"/>
                <mxCell id="jp1rHcbIMbG1HU9a8aKI-1" parent="jp1rHcbIMbG1HU9a8aKI-0"/>
                <mxCell id="PkACyVmBhU2J8NigbD4N-6" style="edgeStyle=none;html=1;exitX=1;exitY=0.5;exitDx=0;exitDy=0;fontSize=20;" parent="jp1rHcbIMbG1HU9a8aKI-1" source="PkACyVmBhU2J8NigbD4N-0" edge="1">
                    <mxGeometry relative="1" as="geometry">
                        <mxPoint x="280" y="190" as="targetPoint"/>
                    </mxGeometry>
                </mxCell>
                <mxCell id="PkACyVmBhU2J8NigbD4N-0" value="Менеджер задач" style="rounded=0;whiteSpace=wrap;html=1;fontSize=20;" parent="jp1rHcbIMbG1HU9a8aKI-1" vertex="1">
                    <mxGeometry x="120" y="160" width="120" height="60" as="geometry"/>
                </mxCell>
                <mxCell id="PkACyVmBhU2J8NigbD4N-1" value="" style="endArrow=classic;html=1;fontSize=20;" parent="jp1rHcbIMbG1HU9a8aKI-1" target="PkACyVmBhU2J8NigbD4N-0" edge="1">
                    <mxGeometry width="50" height="50" relative="1" as="geometry">
                        <mxPoint x="80" y="190" as="sourcePoint"/>
                        <mxPoint x="440" y="300" as="targetPoint"/>
                    </mxGeometry>
                </mxCell>
                <mxCell id="PkACyVmBhU2J8NigbD4N-14" style="edgeStyle=none;html=1;exitX=1;exitY=0.5;exitDx=0;exitDy=0;entryX=0;entryY=0.5;entryDx=0;entryDy=0;fontSize=20;" parent="jp1rHcbIMbG1HU9a8aKI-1" source="PkACyVmBhU2J8NigbD4N-4" target="PkACyVmBhU2J8NigbD4N-13" edge="1">
                    <mxGeometry relative="1" as="geometry">
                        <Array as="points">
                            <mxPoint x="600" y="190"/>
                            <mxPoint x="600" y="240"/>
                            <mxPoint x="240" y="240"/>
                            <mxPoint x="240" y="290"/>
                        </Array>
                    </mxGeometry>
                </mxCell>
                <mxCell id="PkACyVmBhU2J8NigbD4N-4" value="Линия 1" style="rounded=0;whiteSpace=wrap;html=1;fontSize=20;" parent="jp1rHcbIMbG1HU9a8aKI-1" vertex="1">
                    <mxGeometry x="440" y="160" width="120" height="60" as="geometry"/>
                </mxCell>
                <mxCell id="PkACyVmBhU2J8NigbD4N-7" style="edgeStyle=none;html=1;exitX=1;exitY=0.5;exitDx=0;exitDy=0;entryX=0;entryY=0.5;entryDx=0;entryDy=0;fontSize=20;" parent="jp1rHcbIMbG1HU9a8aKI-1" source="PkACyVmBhU2J8NigbD4N-5" target="PkACyVmBhU2J8NigbD4N-4" edge="1">
                    <mxGeometry relative="1" as="geometry"/>
                </mxCell>
                <mxCell id="PkACyVmBhU2J8NigbD4N-5" value="Очередь 1" style="rounded=0;whiteSpace=wrap;html=1;fontSize=20;" parent="jp1rHcbIMbG1HU9a8aKI-1" vertex="1">
                    <mxGeometry x="280" y="160" width="120" height="60" as="geometry"/>
                </mxCell>
                <mxCell id="PkACyVmBhU2J8NigbD4N-16" style="edgeStyle=none;html=1;exitX=1;exitY=0.5;exitDx=0;exitDy=0;fontSize=20;" parent="jp1rHcbIMbG1HU9a8aKI-1" source="PkACyVmBhU2J8NigbD4N-8" edge="1">
                    <mxGeometry relative="1" as="geometry">
                        <mxPoint x="640" y="390" as="targetPoint"/>
                    </mxGeometry>
                </mxCell>
                <mxCell id="PkACyVmBhU2J8NigbD4N-19" value="" style="edgeStyle=none;html=1;fontSize=20;" parent="jp1rHcbIMbG1HU9a8aKI-1" source="PkACyVmBhU2J8NigbD4N-8" target="PkACyVmBhU2J8NigbD4N-17" edge="1">
                    <mxGeometry relative="1" as="geometry"/>
                </mxCell>
                <mxCell id="PkACyVmBhU2J8NigbD4N-8" value="Линия 3" style="rounded=0;whiteSpace=wrap;html=1;fontSize=20;" parent="jp1rHcbIMbG1HU9a8aKI-1" vertex="1">
                    <mxGeometry x="440" y="360" width="120" height="60" as="geometry"/>
                </mxCell>
                <mxCell id="PkACyVmBhU2J8NigbD4N-9" style="edgeStyle=none;html=1;exitX=1;exitY=0.5;exitDx=0;exitDy=0;entryX=0;entryY=0.5;entryDx=0;entryDy=0;fontSize=20;" parent="jp1rHcbIMbG1HU9a8aKI-1" source="PkACyVmBhU2J8NigbD4N-10" target="PkACyVmBhU2J8NigbD4N-8" edge="1">
                    <mxGeometry relative="1" as="geometry"/>
                </mxCell>
                <mxCell id="PkACyVmBhU2J8NigbD4N-10" value="Очередь 3" style="rounded=0;whiteSpace=wrap;html=1;fontSize=20;" parent="jp1rHcbIMbG1HU9a8aKI-1" vertex="1">
                    <mxGeometry x="280" y="360" width="120" height="60" as="geometry"/>
                </mxCell>
                <mxCell id="PkACyVmBhU2J8NigbD4N-15" style="edgeStyle=none;html=1;entryX=0;entryY=0.5;entryDx=0;entryDy=0;fontSize=20;" parent="jp1rHcbIMbG1HU9a8aKI-1" source="PkACyVmBhU2J8NigbD4N-11" target="PkACyVmBhU2J8NigbD4N-10" edge="1">
                    <mxGeometry relative="1" as="geometry">
                        <Array as="points">
                            <mxPoint x="600" y="290"/>
                            <mxPoint x="600" y="340"/>
                            <mxPoint x="240" y="340"/>
                            <mxPoint x="240" y="390"/>
                        </Array>
                    </mxGeometry>
                </mxCell>
                <mxCell id="PkACyVmBhU2J8NigbD4N-11" value="Линия 2" style="rounded=0;whiteSpace=wrap;html=1;fontSize=20;" parent="jp1rHcbIMbG1HU9a8aKI-1" vertex="1">
                    <mxGeometry x="440" y="260" width="120" height="60" as="geometry"/>
                </mxCell>
                <mxCell id="PkACyVmBhU2J8NigbD4N-12" style="edgeStyle=none;html=1;exitX=1;exitY=0.5;exitDx=0;exitDy=0;entryX=0;entryY=0.5;entryDx=0;entryDy=0;fontSize=20;" parent="jp1rHcbIMbG1HU9a8aKI-1" source="PkACyVmBhU2J8NigbD4N-13" target="PkACyVmBhU2J8NigbD4N-11" edge="1">
                    <mxGeometry relative="1" as="geometry"/>
                </mxCell>
                <mxCell id="PkACyVmBhU2J8NigbD4N-13" value="Очередь 2" style="rounded=0;whiteSpace=wrap;html=1;fontSize=20;" parent="jp1rHcbIMbG1HU9a8aKI-1" vertex="1">
                    <mxGeometry x="280" y="260" width="120" height="60" as="geometry"/>
                </mxCell>
                <mxCell id="PkACyVmBhU2J8NigbD4N-17" value="Результат" style="rounded=0;whiteSpace=wrap;html=1;fontSize=20;" parent="jp1rHcbIMbG1HU9a8aKI-1" vertex="1">
                    <mxGeometry x="600" y="360" width="120" height="60" as="geometry"/>
                </mxCell>
                <mxCell id="PkACyVmBhU2J8NigbD4N-2" value="" style="endArrow=classic;html=1;fontSize=20;" edge="1" parent="jp1rHcbIMbG1HU9a8aKI-1">
                    <mxGeometry width="50" height="50" relative="1" as="geometry">
                        <mxPoint x="720" y="389.84000000000003" as="sourcePoint"/>
                        <mxPoint x="760" y="389.84000000000003" as="targetPoint"/>
                    </mxGeometry>
                </mxCell>
            </root>
        </mxGraphModel>
    </diagram>
</mxfile>